HIERARCHY
ROOT Hips
{
    OFFSET 0.00000 0.00000 0.00000
    CHANNELS 6 Xposition Yposition Zposition Zrotation Yrotation Xrotation
    JOINT LHipJoint
    {
        OFFSET 0.00000 0.00000 0.00000
        CHANNELS 3 Zrotation Yrotation Xrotation
        JOINT LeftUpLeg
        {
            OFFSET 3.03018 0.00000 0.00000
            CHANNELS 3 Zrotation Yrotation Xrotation
            JOINT LeftLeg
            {
                OFFSET 0.00000 0.00000 -10.16532
                CHANNELS 3 Zrotation Yrotation Xrotation
                JOINT LeftFoot
                {
                    OFFSET 0.00000 0.00000 -7.82209
                    CHANNELS 3 Zrotation Yrotation Xrotation
                    JOINT LeftToeBase
                    {
                        OFFSET 0.00000 -0.10000 0.00000
                        CHANNELS 3 Zrotation Yrotation Xrotation
                        End Site
                        {
                            OFFSET 0.00000 0.00000 0.10000
                        }
                    }
                }
            }
        }
    }
    JOINT RHipJoint
    {
        OFFSET 0.00000 0.00000 0.00000
        CHANNELS 3 Zrotation Yrotation Xrotation
        JOINT RightUpLeg
        {
            OFFSET -3.03018 0.00000 0.00000
            CHANNELS 3 Zrotation Yrotation Xrotation
            JOINT RightLeg
            {
                OFFSET 0.00000 0.00000 -10.16532
                CHANNELS 3 Zrotation Yrotation Xrotation
                JOINT RightFoot
                {
                    OFFSET 0.00000 0.00000 -7.82209
                    CHANNELS 3 Zrotation Yrotation Xrotation
                    JOINT RightToeBase
                    {
                        OFFSET 0.00000 -0.10000 0.00000
                        CHANNELS 3 Zrotation Yrotation Xrotation
                        End Site
                        {
                            OFFSET 0.00000 0.00000 0.10000
                        }
                    }
                }
            }
        }
    }
    JOINT LowerBack
    {
        OFFSET 0.00000 0.00000 0.00000
        CHANNELS 3 Zrotation Yrotation Xrotation
        JOINT Spine
        {
            OFFSET 0.00000 0.00000 5.46341
            CHANNELS 3 Zrotation Yrotation Xrotation
            JOINT Spine1
            {
                OFFSET 0.00000 0.00000 6.40534
                CHANNELS 3 Zrotation Yrotation Xrotation
                JOINT Neck
                {
                    OFFSET 0.00000 0.00000 0.00000
                    CHANNELS 3 Zrotation Yrotation Xrotation
                    JOINT Neck1
                    {
                        OFFSET 0.00000 0.00000 2.57609
                        CHANNELS 3 Zrotation Yrotation Xrotation
                        JOINT Head
                        {
                            OFFSET 0.00000 0.00000 2.87447
                            CHANNELS 3 Zrotation Yrotation Xrotation
                            End Site
                            {
                                OFFSET 0.00000 0.09806 -0.01961
                            }
                        }
                    }
                }
                JOINT LeftShoulder
                {
                    OFFSET 0.00000 0.00000 0.00000
                    CHANNELS 3 Zrotation Yrotation Xrotation
                    JOINT LeftArm
                    {
                        OFFSET 3.48377 0.00000 0.00000
                        CHANNELS 3 Zrotation Yrotation Xrotation
                        JOINT LeftForeArm
                        {
                            OFFSET 6.44724 0.00000 0.00000
                            CHANNELS 3 Zrotation Yrotation Xrotation
                            JOINT LeftHand
                            {
                                OFFSET 6.03404 0.00000 0.00000
                                CHANNELS 3 Zrotation Yrotation Xrotation
                                JOINT LeftFingerBase
                                {
                                    OFFSET 0.00000 0.00000 0.00000
                                    CHANNELS 3 Zrotation Yrotation Xrotation
                                    JOINT LeftHandIndex1
                                    {
                                        OFFSET 0.10000 0.00000 0.00000
                                        CHANNELS 3 Zrotation Yrotation Xrotation
                                        End Site
                                        {
                                            OFFSET 0.10000 0.00000 0.00000
                                        }
                                    }
                                }
                                JOINT LThumb
                                {
                                    OFFSET 0.10000 0.00000 0.00000
                                    CHANNELS 3 Zrotation Yrotation Xrotation
                                    End Site
                                    {
                                        OFFSET 0.07071 0.00000 0.07071
                                    }
                                }
                            }
                        }
                    }
                }
                JOINT RightShoulder
                {
                    OFFSET 0.00000 0.00000 0.00000
                    CHANNELS 3 Zrotation Yrotation Xrotation
                    JOINT RightArm
                    {
                        OFFSET -3.48377 0.00000 0.00000
                        CHANNELS 3 Zrotation Yrotation Xrotation
                        JOINT RightForeArm
                        {
                            OFFSET -6.44724 0.00000 0.00000
                            CHANNELS 3 Zrotation Yrotation Xrotation
                            JOINT RightHand
                            {
                                OFFSET -6.03404 0.00000 0.00000
                                CHANNELS 3 Zrotation Yrotation Xrotation
                                JOINT RightFingerBase
                                {
                                    OFFSET 0.00000 0.00000 0.00000
                                    CHANNELS 3 Zrotation Yrotation Xrotation
                                    JOINT RightHandIndex1
                                    {
                                        OFFSET -0.10000 0.00000 0.00000
                                        CHANNELS 3 Zrotation Yrotation Xrotation
                                        End Site
                                        {
                                            OFFSET -0.10000 0.00000 0.00000
                                        }
                                    }
                                }
                                JOINT RThumb
                                {
                                    OFFSET -0.10000 0.00000 0.00000
                                    CHANNELS 3 Zrotation Yrotation Xrotation
                                    End Site
                                    {
                                        OFFSET -0.07071 0.00000 0.07071
                                    }
                                }
                            }
                        }
                    }
                }
            }
        }
    }
}
MOTION
Frames: 4
Frame Time: 0.04
0.0 0.0 0 0.17367581400512946 3.978717848748356 -76.71473922609057 0.0 0.0 0.0 -2.9187273312649937 7.320674032218579 -14.776121130204329 6.129359011121442 -4.230326785306853 39.46401796920683 0.0 7.454425034680117e-16 0.0 0.0 7.454425034680117e-16 0.0 0.0 0.0 0.0 -0.7219003164120334 -2.0985783605430304 -22.6171567399566 -4.63904890824419 -2.375356318624174 83.77307436529397 0.0 0.0 0.0 0.0 0.0 0.0 0.0 0.0 0.0 -0.04554049342788556 6.895456576725842 -0.24451667755821707 4.096507067742367 -1.0697738948748564e-15 1.3226668338082971e-14 -3.975693351829396e-16 0.0 0.0 -6.8535744968600545 -5.122298305025398 6.578929715299597 0.0 0.0 6.361109362927035e-15 -3.975693351829396e-16 0.0 0.0 48.79991017926598 44.480212554722016 76.36046926424852 -88.29059707733504 -5.437341191057431e-15 -1.2451947970679363e-14 0.0 0.0 0.0 0.0 0.0 0.0 0.0 0.0 0.0 0.0 0.0 0.0 -3.975693351829396e-16 0.0 0.0 -62.625941170244765 -58.714402130339096 91.96761978717167 63.62483691877145 -3.353195134952484e-15 5.405533712229437e-15 0.0 0.0 0.0 0.0 0.0 0.0 0.0 0.0 0.0 0.0 0.0 0.0
0.0 0.0 0 -0.14767589946352802 4.430562917128166 -77.24925199990132 2.2069531490250793e-32 3.975693351829396e-16 6.3611093629270335e-15 -2.5239612423768745 6.802704985690996 -13.951975727269732 5.794745210400089 -4.196704929261908 41.915449196748284 1.987846675914698e-16 4.969616689786745e-16 8.620910738379216e-34 1.987846675914698e-16 4.969616689786745e-16 8.620910738379216e-34 2.2069531490250793e-32 3.975693351829396e-16 6.3611093629270335e-15 -0.25976723455317124 -2.8252321791272914 -23.173829107155317 -3.7502401194515125 -1.301175760841321 80.1464246370669 0.0 -9.93923337957349e-17 0.0 0.0 -9.93923337957349e-17 0.0 2.2069531490250793e-32 3.975693351829396e-16 6.3611093629270335e-15 0.027028529459405985 6.08690573252774 0.16339926679223715 2.8540037983791904 3.7706985090550825e-16 4.818988972794606e-15 1.9878466759146975e-16 -4.969616689786744e-16 6.361109362927033e-15 -6.103679410298072 -5.2881935635679005 7.115287632279469 9.939233379573487e-17 -9.939233379573487e-17 6.361109362927032e-15 1.9878466759146975e-16 -4.969616689786744e-16 6.361109362927033e-15 48.87742183421104 44.899599715671215 77.57807310149953 -87.35431834546121 -4.392944894723062e-15 -4.600624683566847e-15 0.0 0.0 0.0 0.0 0.0 0.0 0.0 0.0 0.0 0.0 0.0 0.0 1.9878466759146975e-16 -4.969616689786744e-16 6.361109362927033e-15 -62.5762869842981 -57.68149977376382 92.20957807915032 62.467179981777 6.0179821616340114e-15 -3.789924947957717e-15 -6.3611093629270335e-15 3.1805546814635168e-15 -1.7655625192200634e-31 -6.3611093629270335e-15 3.1805546814635168e-15 -1.7655625192200634e-31 -6.3611093629270335e-15 3.1805546814635168e-15 -1.7655625192200634e-31 -6.3611093629270335e-15 3.1805546814635168e-15 -1.7655625192200634e-31
0.0 0.0 0 -0.28033734884800504 4.732109081520799 -77.68699044283665 0.0 0.0 -1.2424041724466865e-17 -2.1598236254695666 6.35774412193051 -13.260855026179431 5.3874037943777955 -4.129183529647247 44.78828401460874 -3.975693351829396e-16 -6.460501696722769e-16 2.2414367919785963e-33 -3.975693351829396e-16 -6.460501696722769e-16 2.2414367919785963e-33 0.0 0.0 -1.2424041724466865e-17 0.15954967116123336 -3.2382049530199764 -23.60047313290485 -3.011789682449163 -0.3195445659975551 76.39729160449335 0.0 -9.939233379573489e-17 0.0 0.0 -9.939233379573489e-17 0.0 0.0 0.0 -1.2424041724466865e-17 0.025555528979416525 5.590403680471277 0.1736868657674624 1.7471928504831966 -8.679585520757674e-16 -2.456599525081119e-14 0.0 3.4787316828507215e-16 0.0 -5.352158052485188 -5.724778988655379 7.806414963805287 3.7272125173400606e-17 -7.45442503468012e-17 -6.361109362927035e-15 0.0 3.4787316828507215e-16 0.0 48.774743461275946 44.870468092565176 78.81588633545014 -88.04519727876581 -1.2118292951514888e-14 -1.4827318331572e-14 0.0 0.0 0.0 0.0 0.0 0.0 0.0 0.0 0.0 0.0 0.0 0.0 0.0 3.4787316828507215e-16 0.0 -62.88900694008077 -56.19881925558212 91.8735283505344 62.47875328283584 -6.798499585173412e-15 -4.123706330659199e-15 0.0 0.0 0.0 0.0 0.0 0.0 0.0 0.0 0.0 0.0 0.0 0.0
0.0 0.0 0 -0.3776779861660067 4.7777916079809 -77.87820072882008 3.975693351829396e-16 0.0 0.0 -1.7891930079004839 5.967507472713246 -12.2008444204964 4.5083396503998765 -4.314189580306703 46.636018941405844 -1.987846675914698e-16 -2.4848083448933725e-16 4.310455369189608e-34 -1.987846675914698e-16 -2.4848083448933725e-16 4.310455369189608e-34 3.975693351829396e-16 0.0 0.0 0.5585926020075311 -3.5915460492185445 -24.560836521193394 -1.8822610055962494 0.72689472071693 71.54432095656804 3.975693351829396e-16 0.0 0.0 3.975693351829396e-16 0.0 0.0 3.975693351829396e-16 0.0 0.0 -0.0070297889963480496 5.124528248876781 -0.05394808136581461 0.5962073513472201 2.124680163152328e-15 -2.629410380326808e-14 -3.975693351829396e-16 -5.590818776010089e-17 1.939704916135324e-34 -4.378971665098848 -6.250283695344192 8.069023821979926 4.969616689786745e-17 0.0 0.0 -3.975693351829396e-16 -5.590818776010089e-17 1.939704916135324e-34 48.9001159682097 45.01158906709713 80.39611257479524 -88.098284409459 3.1304323873553476e-15 1.4672416054889885e-14 0.0 0.0 0.0 0.0 0.0 0.0 0.0 0.0 0.0 0.0 0.0 0.0 -3.975693351829396e-16 -5.590818776010089e-17 1.939704916135324e-34 -63.473880290656254 -54.91930456248977 92.03619135981508 62.24447395106735 -4.084149705922686e-15 -2.4658790245296913e-15 0.0 0.0 0.0 0.0 0.0 0.0 0.0 0.0 0.0 0.0 0.0 0.0
